<svg xmlns="http://www.w3.org/2000/svg" xmlns:xlink="http://www.w3.org/1999/xlink" viewBox="0 0 260.55 86.33" xmlns:v="https://vecta.io/nano"><path d="M69.72 43.01c0 15.72-12.74 28.46-28.46 28.46-4.37 0-8.51-.98-12.21-2.74l-.61-.3c-5.05-2.55-9.23-6.56-12-11.47a28.37 28.37 0 0 1-3.64-13.95c0-.31 0-.61.03-.92.05-1.95.31-3.84.75-5.67a26.96 26.96 0 0 1 1.31-4.11c.81-2.01 1.85-3.91 3.09-5.66.58-.83 1.21-1.62 1.88-2.38 5.2-5.96 12.86-9.72 21.4-9.72 15.72 0 28.46 12.74 28.46 28.46z" fill="#b634d6"/><use xlink:href="#B" fill="#820bb4"/><path d="M80.86 19.09h71.41V33.3H80.86z" fill="#b634d6"/><g fill="#fff"><path d="M92.84 29.84v-7.95h.76v3.99l-.11 1.14.08 1.14v1.69h-.73zm2.91.05c-.49 0-.94-.11-1.33-.34-.39-.22-.7-.55-.93-.98s-.34-.95-.34-1.55c0-.61.12-1.13.35-1.56.23-.42.54-.75.94-.97a2.64 2.64 0 0 1 1.32-.33 2.85 2.85 0 0 1 1.44.36c.42.24.76.57 1 1a3.03 3.03 0 0 1 .37 1.5c0 .57-.12 1.06-.37 1.5-.24.43-.58.77-1 1.01s-.91.36-1.45.36zm-.05-.67a2.1 2.1 0 0 0 1.07-.27c.31-.18.56-.44.75-.77s.28-.72.28-1.15c0-.44-.09-.83-.28-1.16a2.13 2.13 0 0 0-.75-.77 2.1 2.1 0 0 0-1.07-.27c-.4 0-.76.09-1.08.27s-.57.44-.75.77-.27.71-.27 1.16c0 .44.09.82.27 1.15s.43.59.75.77.68.27 1.08.27z"/><path d="M95.75 29.99c-.51 0-.97-.12-1.38-.35-.27-.15-.5-.35-.7-.6v.9h-.93v-8.15h.96v3.18a2.29 2.29 0 0 1 .68-.56c.41-.23.87-.35 1.37-.35.55 0 1.05.13 1.49.37.44.25.79.6 1.04 1.04s.38.96.38 1.55c0 .58-.13 1.1-.38 1.54a2.69 2.69 0 0 1-1.04 1.05c-.44.26-.94.38-1.49.38zm-2.08-1.29c.21.33.48.59.8.77.38.22.81.32 1.28.32.52 0 .98-.12 1.39-.35s.73-.56.96-.97c.23-.42.35-.9.35-1.45s-.12-1.04-.35-1.45a2.53 2.53 0 0 0-.96-.96c-.41-.23-.88-.35-1.39-.35-.47 0-.89.11-1.27.32a2.21 2.21 0 0 0-.77.72l-.01.69c.03-.06.05-.12.09-.17.19-.34.46-.61.79-.81.33-.19.71-.29 1.13-.29s.79.1 1.12.29.59.46.79.8c.19.34.29.75.29 1.21 0 .45-.1.86-.29 1.2-.19.35-.46.62-.79.81s-.71.29-1.12.29a2.26 2.26 0 0 1-1.13-.29c-.33-.19-.6-.46-.79-.81l-.12-.25.01.17v.56zm-.72 1.04h.53v-.99c-.03-.04-.05-.09-.07-.13-.24-.44-.35-.98-.35-1.6 0-.63.12-1.17.36-1.61.03-.06.07-.12.1-.17v-3.26h-.56v7.76zm2.75-4.82c-.38 0-.73.09-1.03.26s-.54.42-.71.73-.26.69-.26 1.11.09.79.26 1.1.41.56.71.73.65.26 1.03.26.72-.09 1.02-.26.54-.42.71-.73c.18-.32.27-.69.27-1.1 0-.42-.09-.8-.27-1.11a1.99 1.99 0 0 0-.71-.73c-.3-.17-.65-.26-1.02-.26zm-2.19.74c-.17.38-.26.84-.26 1.36 0 .49.08.92.23 1.29v-.16l-.07-1.13.11-1.15v-.21zm6.48 6.31c-.26 0-.52-.04-.75-.13a1.49 1.49 0 0 1-.62-.39l.35-.57c.14.14.3.24.47.32s.36.11.56.11c.25 0 .47-.07.65-.21s.36-.38.52-.73l.36-.83.09-.12 2.32-5.22h.75l-2.82 6.3a3.33 3.33 0 0 1-.52.87c-.19.21-.39.37-.62.46-.22.1-.47.14-.74.14zm1.5-1.97l-2.59-5.79h.79l2.29 5.17-.49.62z"/><path d="M99.99 32.07c-.27 0-.54-.05-.79-.13-.25-.09-.47-.23-.65-.41l-.06-.06.46-.74.09.08c.13.13.28.23.44.3a1.27 1.27 0 0 0 .52.1c.23 0 .42-.06.59-.19s.33-.36.49-.7l.22-.51-2.56-5.71h1.01l2.06 4.64 2.06-4.64h.97l-2.88 6.44c-.16.37-.34.67-.54.89s-.42.39-.65.48c-.23.12-.49.16-.78.16zm-1.24-.63c.15.13.32.24.52.31.46.16 1.01.16 1.42 0 .21-.08.4-.23.58-.43.18-.21.35-.49.5-.84l2.76-6.16H104L101.93 29l.18.4-.63.8-.05-.12-.15.35c-.18.37-.35.62-.55.77a1.16 1.16 0 0 1-.71.23 1.46 1.46 0 0 1-.6-.12c-.14-.06-.28-.15-.4-.25l-.27.38zm3.07-2.2l-.1.23-.1.14-.07.17.33-.41-.06-.13zm-2.77-4.93l2.36 5.27.03-.07.1-.14.17-.38-2.08-4.69h-.58zm8.91 5.53v-.5l3.75-4.75.16.26h-3.85v-.63h4.45v.49l-3.74 4.76-.19-.26h4.01v.63h-4.59z"/><path d="M112.65 29.94h-4.79v-.64l.02-.03 3.42-4.33h-3.38v-.83h4.65v.63l-3.43 4.37h3.51v.83zm-4.59-.2h4.39v-.43h-3.46l-.25.32-.39-.52h.55l3.49-4.44v-.36h-4.25v.43h3.33l.26-.33.33.53h-.5l-3.5 4.43v.37zm8.28.15c-.59 0-1.1-.12-1.54-.37s-.79-.59-1.04-1.02-.38-.93-.38-1.49.12-1.05.36-1.48.57-.77.99-1.01a2.7 2.7 0 0 1 1.41-.37c.53 0 1 .12 1.41.36s.73.58.97 1.01.35.93.35 1.5v.11c0 .04-.01.08-.01.12h-4.9v-.57h4.49l-.3.23a2.28 2.28 0 0 0-.26-1.09 1.9 1.9 0 0 0-.71-.75 1.99 1.99 0 0 0-1.04-.27c-.39 0-.73.09-1.04.27s-.55.43-.72.75a2.32 2.32 0 0 0-.26 1.1v.12c0 .43.09.81.28 1.13s.45.58.79.76a2.45 2.45 0 0 0 1.16.27 2.56 2.56 0 0 0 .96-.18c.3-.12.55-.31.77-.56l.43.49c-.25.3-.56.53-.94.69-.37.18-.78.25-1.23.25z"/><path d="M116.34 29.99c-.6 0-1.14-.13-1.59-.38-.46-.25-.82-.61-1.08-1.05-.26-.45-.39-.96-.39-1.54s.13-1.09.37-1.53a2.78 2.78 0 0 1 1.02-1.05c.43-.25.92-.38 1.46-.38a2.96 2.96 0 0 1 1.46.37c.42.25.76.6 1.01 1.05.24.44.37.96.37 1.54 0 .04 0 .08-.01.12 0 .04-.01.07-.01.11v.1h-4.72a1.99 1.99 0 0 0 .25.78c.18.31.43.55.75.72s.7.26 1.12.26a2.51 2.51 0 0 0 .92-.17 1.91 1.91 0 0 0 .73-.53l.08-.09.56.65-.05.07c-.26.31-.59.55-.98.71-.38.16-.81.24-1.27.24zm-.2-5.73c-.5 0-.96.12-1.36.36s-.72.56-.95.98c-.23.41-.35.89-.35 1.43a2.85 2.85 0 0 0 .36 1.44c.24.41.58.74 1 .98.43.24.93.36 1.49.36a3.13 3.13 0 0 0 1.2-.23 2.41 2.41 0 0 0 .84-.59l-.3-.34c-.21.22-.45.39-.73.5-.31.13-.64.19-1 .19-.45 0-.86-.1-1.21-.28a2.13 2.13 0 0 1-.83-.8 2.12 2.12 0 0 1-.28-.88h-.18v-.77h.18a2.34 2.34 0 0 1 .25-.8 1.93 1.93 0 0 1 .76-.79c.32-.19.69-.28 1.09-.28.41 0 .78.1 1.09.28a2.08 2.08 0 0 1 .75.78c.13.24.22.52.26.81h.51a2.9 2.9 0 0 0-.32-1.02c-.23-.41-.54-.74-.93-.97-.38-.24-.84-.36-1.34-.36zm-1.92 2.9h4.54v-.03-.1l-.02-.43-.69.52v-.2-.13h-3.82v.15.12c-.01.03-.01.06-.01.1zm.02-.57h3.79c-.03-.26-.11-.5-.23-.71-.17-.3-.39-.54-.68-.71-.28-.17-.62-.25-.99-.25a2.02 2.02 0 0 0-.99.25c-.29.17-.52.41-.68.71a2.27 2.27 0 0 0-.22.71zm9.06-2.43c.46 0 .86.09 1.21.26a1.79 1.79 0 0 1 .81.8c.2.36.29.81.29 1.35v3.27h-.76v-3.19c0-.59-.15-1.04-.45-1.34s-.71-.46-1.25-.46c-.4 0-.75.08-1.04.24a1.61 1.61 0 0 0-.69.7c-.16.3-.24.67-.24 1.1v2.96h-.76v-5.63h.73v1.54l-.12-.29c.18-.41.46-.73.86-.96.39-.23.86-.35 1.41-.35z"/><path d="M125.71 29.94h-.96v-3.29c0-.56-.14-.99-.42-1.27s-.67-.43-1.18-.43c-.38 0-.72.08-1 .23s-.49.37-.64.66-.23.64-.23 1.05v3.06h-.96v-5.83h.93v.81c.16-.2.36-.36.59-.5.41-.24.9-.36 1.46-.36.47 0 .89.09 1.25.27s.65.47.86.84c.2.37.31.84.31 1.4v3.36zm-.76-.2h.56v-3.17c0-.52-.09-.96-.28-1.3s-.45-.59-.77-.76c-.33-.17-.72-.25-1.16-.25-.52 0-.98.11-1.35.33-.29.17-.52.4-.69.67v.66l.08-.18c.17-.32.41-.57.73-.74.31-.17.68-.25 1.09-.25.56 0 1.01.16 1.32.49.31.32.47.8.47 1.41v3.09zm-4.43 0h.56v-2.86a2.66 2.66 0 0 1 .1-.77l-.26-.64.02-.04c.03-.08.07-.15.11-.22v-.9h-.53v5.43zm6.27-4.89v-.63h3.48v.63h-3.48zm2.66 5.04c-.53 0-.94-.14-1.22-.43-.29-.29-.43-.69-.43-1.21v-5.28h.76v5.24c0 .33.08.58.25.76s.41.27.72.27c.34 0 .62-.1.84-.29l.27.55c-.15.14-.33.24-.54.3-.22.06-.43.09-.65.09z"/><path d="M129.45 29.99c-.55 0-.99-.15-1.29-.46s-.46-.74-.46-1.28v-3.31h-1.01v-.83h1.01v-1.24h.96v1.24h1.71v.83h-1.71v3.27c0 .3.08.53.22.69.15.16.36.24.65.24.31 0 .57-.09.77-.26l.1-.09.36.73-.06.05c-.16.14-.35.25-.58.32-.21.07-.44.1-.67.1zm-1.55-5.04v3.31c0 .49.13.87.4 1.14s.65.4 1.15.4c.21 0 .42-.03.62-.09a1.37 1.37 0 0 0 .45-.23l-.18-.37c-.22.16-.49.23-.8.23-.34 0-.61-.1-.8-.3-.18-.2-.28-.48-.28-.83v-3.27h-.56zm.76-.2h1.51v-.43h-1.51v.43zm-.76 0h.56v-.43h-.56v.43zm-1.01 0h.81v-.43h-.81v.43zm1.01-.64h.56v-1.04h-.56v1.04zm5.71 5.78c-.42 0-.79-.07-1.1-.21s-.55-.33-.71-.58a1.54 1.54 0 0 1-.25-.85c0-.29.07-.56.21-.8s.37-.43.69-.58.75-.22 1.28-.22h1.94v.57h-1.92c-.54 0-.92.1-1.13.29s-.32.43-.32.72c0 .32.13.58.38.77s.6.29 1.05.29c.43 0 .8-.1 1.11-.29.31-.2.54-.48.68-.85l.17.53c-.14.37-.39.67-.75.89-.35.21-.8.32-1.33.32zm1.94-.05V28.6l-.03-.2v-2.08c0-.48-.13-.85-.4-1.1-.27-.26-.67-.39-1.2-.39-.36 0-.71.06-1.04.18a2.64 2.64 0 0 0-.84.48l-.34-.57c.29-.24.63-.43 1.03-.56s.82-.2 1.26-.2c.73 0 1.29.18 1.69.54s.59.91.59 1.65v3.49h-.72z"/><path d="M133.61 29.99c-.43 0-.82-.07-1.14-.22-.33-.15-.58-.35-.75-.62-.17-.26-.26-.57-.26-.91 0-.31.08-.6.22-.85.15-.26.39-.47.73-.62.33-.15.78-.23 1.32-.23h1.69v-.24c0-.45-.13-.79-.37-1.03-.25-.24-.63-.36-1.13-.36h0c-.35 0-.69.06-1 .18s-.58.27-.8.46l-.09.08-.45-.74.07-.06c.3-.25.65-.45 1.06-.58a4.31 4.31 0 0 1 1.3-.2c.75 0 1.34.19 1.76.57s.63.96.63 1.72v3.59h-.93v-.68c-.13.15-.28.27-.45.38-.39.25-.86.36-1.41.36zm.11-3.23c-.52 0-.94.07-1.24.21s-.51.32-.64.54a1.45 1.45 0 0 0-.2.75c0 .3.08.57.23.8s.38.41.67.54.65.2 1.06.2c.51 0 .95-.11 1.28-.32.23-.15.42-.33.56-.55l-.01-.4a1.7 1.7 0 0 1-.55.55c-.33.21-.72.31-1.16.31-.47 0-.84-.1-1.11-.31-.28-.21-.41-.5-.41-.85a1.04 1.04 0 0 1 .35-.79c.23-.21.62-.32 1.2-.32h1.67v-.37h-1.7zm1.93 2.98h.53v-3.39c0-.7-.19-1.23-.56-1.57-.38-.34-.92-.51-1.62-.51a3.86 3.86 0 0 0-1.23.19 3.05 3.05 0 0 0-.93.49l.24.39c.22-.17.48-.32.78-.42a2.98 2.98 0 0 1 1.07-.19c.55 0 .98.14 1.26.42.29.28.43.67.43 1.18v.24h.15v.77h-.15v.81l.18.54-.01.03c-.04.1-.08.19-.13.28v.74zm-1.9-2.41c-.52 0-.87.09-1.06.26a.85.85 0 0 0-.28.65c0 .29.11.52.34.69.23.18.56.27.99.27.41 0 .76-.09 1.06-.28.29-.18.5-.45.64-.79v-.8h-1.69zm6.89 2.56c-.55 0-1.04-.12-1.47-.37a2.77 2.77 0 0 1-1.02-1.02 2.91 2.91 0 0 1-.38-1.48c0-.56.13-1.06.38-1.49s.59-.76 1.02-1.01.92-.36 1.47-.36c.56 0 1.05.12 1.48.37s.77.58 1.02 1.01.37.92.37 1.48-.12 1.05-.37 1.49a2.77 2.77 0 0 1-1.02 1.02 3.03 3.03 0 0 1-1.48.36zm0-.67c.41 0 .77-.09 1.08-.27s.56-.44.75-.77c.18-.33.27-.72.27-1.15 0-.44-.09-.83-.27-1.16s-.43-.58-.75-.77a2.1 2.1 0 0 0-1.07-.27 2.1 2.1 0 0 0-1.07.27c-.31.18-.56.44-.75.77s-.28.71-.28 1.16c0 .44.09.82.28 1.15s.43.59.75.77c.3.18.66.27 1.06.27z"/><path d="M140.64 29.99c-.57 0-1.08-.13-1.52-.38s-.8-.61-1.06-1.06-.39-.96-.39-1.53c0-.58.13-1.1.39-1.54a2.83 2.83 0 0 1 1.05-1.04c.44-.25.95-.38 1.52-.38s1.09.13 1.53.38c.45.25.8.6 1.06 1.04.25.44.38.96.38 1.53s-.13 1.09-.38 1.54-.61.8-1.06 1.05c-.44.27-.96.39-1.52.39zm0-5.73c-.53 0-1.01.12-1.42.35s-.74.56-.98.97-.36.9-.36 1.44c0 .53.12 1.01.36 1.43a2.66 2.66 0 0 0 .98.99c.41.24.89.36 1.42.36s1.01-.12 1.43-.36a2.66 2.66 0 0 0 .99-.98 2.85 2.85 0 0 0 .36-1.44c0-.54-.12-1.03-.36-1.43a2.68 2.68 0 0 0-.98-.97 2.85 2.85 0 0 0-1.44-.36zm0 5.06c-.42 0-.79-.1-1.12-.29-.32-.19-.59-.46-.78-.81s-.29-.75-.29-1.2c0-.46.1-.86.29-1.21.2-.34.46-.61.79-.8s.71-.29 1.12-.29c.42 0 .79.1 1.12.29a2.07 2.07 0 0 1 .78.8c.19.34.29.75.29 1.21 0 .45-.1.85-.29 1.2a2.03 2.03 0 0 1-.78.81c-.33.19-.71.29-1.13.29zm.01-4.4c-.38 0-.72.09-1.02.26s-.54.42-.71.73c-.18.31-.27.69-.27 1.11s.09.79.27 1.1a1.99 1.99 0 0 0 .71.73c.29.17.64.26 1.02.26a2.02 2.02 0 0 0 1.03-.26c.3-.17.54-.42.71-.73a2.32 2.32 0 0 0 .26-1.1c0-.42-.09-.79-.26-1.11-.17-.31-.41-.56-.71-.73a2.1 2.1 0 0 0-1.03-.26z"/></g><path d="M122.78 59.55c.22-.02.53-.08.92-.19.76-.14 1.46-.08 2.11.19s1.13.71 1.45 1.31l.63 1.18-.74.31h-.07l-1.29.42c-.54.18-1.02.31-1.43.39-.76.17-1.64.31-2.65.44-.98.12-2.01.19-3.09.19-1.99 0-3.69-.22-5.11-.65-1.42-.42-2.56-1.05-3.42-1.9-.86-.87-1.42-1.96-1.69-3.27s-.26-2.84.04-4.6c.27-1.66.78-3.16 1.54-4.51.74-1.35 1.67-2.49 2.79-3.42 1.13-.93 2.44-1.65 3.93-2.15 1.5-.48 3.13-.71 4.89-.71 1.84 0 3.38.23 4.63.68 1.25.46 2.23 1.1 2.94 1.93s1.18 1.8 1.4 2.92c.2 1.12.18 2.34-.04 3.67l-.11.84c-.12.64-.38 1.12-.77 1.43s-.88.47-1.47.47h-13.53c-.15.81-.16 1.53-.04 2.18.12.66.38 1.22.77 1.68.42.46.99.8 1.73 1.03.74.25 1.64.37 2.72.37 1.12-.01 2.1-.09 2.96-.23zm-6.92-10.33a8.12 8.12 0 0 0-.66 1.87h9.38c.29-1.49.13-2.66-.48-3.52-.61-.85-1.72-1.28-3.31-1.28-.78 0-1.5.13-2.13.37-.64.27-1.18.61-1.62 1.03-.46.44-.86.95-1.18 1.53zm24.97.84l-1.88 11.42c-.15.68-.51 1.25-1.1 1.68s-1.29.65-2.1.65h-3.57l3.05-18.54c.15-.81.57-1.47 1.27-1.98s1.51-.76 2.44-.76h2.17l-.52 3.33c1.42-1.14 2.83-2 4.23-2.58 1.37-.56 2.76-.84 4.15-.84 1.54 0 2.81.21 3.79.62.98.44 1.73 1.02 2.24 1.74.54.75.87 1.61.99 2.58.12 1 .07 2.18-.15 3.55l-1.73 12.88h-6.36l1.58-11.98c.15-.91.18-1.64.11-2.18-.07-.52-.23-.96-.48-1.34-.22-.39-.56-.69-1.03-.9-.44-.21-.98-.31-1.62-.31-.81 0-1.67.25-2.57.75-.88.52-1.86 1.26-2.91 2.21zm35.81.75c.51.56.91 1.22 1.18 1.99.25.77.28 1.68.11 2.74-.25 1.35-.76 2.54-1.54 3.58a9.85 9.85 0 0 1-2.9 2.58c-1.18.68-2.49 1.2-3.93 1.56-1.47.35-3 .53-4.6.53-1.08 0-2.06-.07-2.94-.22-.91-.15-1.7-.32-2.39-.53-.66-.21-1.21-.42-1.65-.65-.42-.23-.71-.42-.88-.59l.51-1.03c.42-.79 1.05-1.38 1.91-1.77s1.76-.47 2.72-.22l.37.09c.86.23 1.88.34 3.05.34.76 0 1.46-.08 2.1-.25.64-.14 1.2-.36 1.69-.65.46-.27.85-.61 1.14-1.03s.49-.88.59-1.4c.1-.58-.01-1.08-.33-1.49-.32-.44-.76-.82-1.32-1.15-.56-.31-1.21-.61-1.95-.9l-2.28-.93a15.47 15.47 0 0 1-2.24-1.09c-.71-.39-1.34-.88-1.88-1.46-.51-.56-.89-1.23-1.14-2.02-.27-.77-.31-1.69-.11-2.77.22-1.14.7-2.14 1.43-2.99a9.86 9.86 0 0 1 2.65-2.33c1.05-.62 2.24-1.09 3.57-1.4 1.35-.31 2.73-.47 4.15-.47.74 0 1.47.05 2.21.16.71.08 1.37.21 1.99.37l1.62.53.53.25c.18.08.4.2.64.34l-.88 1.62c-.88 1.43-2.34 1.86-4.38 1.28h-.04c-.76-.21-1.52-.35-2.28-.44-.74 0-1.4.08-1.99.25-.49.15-.91.33-1.25.56-.39.25-.71.55-.96.9a2.88 2.88 0 0 0-.44 1.09c-.1.58.01 1.08.33 1.49.29.44.74.81 1.32 1.12.59.33 1.25.64 1.99.93l2.32.9c.78.33 1.54.71 2.28 1.12a7.4 7.4 0 0 1 1.9 1.46zm12.2-.28l-2.21 13.32h-6.29l4.15-25.73c.76-2.38 2.24-3.58 4.45-3.58h2.43l-1.76 11.17c1.25-.91 2.46-1.59 3.64-2.02a10.38 10.38 0 0 1 3.6-.65c1.52 0 2.77.21 3.75.62.96.42 1.69.99 2.21 1.71.51.75.83 1.61.96 2.58.12.97.07 2.16-.15 3.55l-2.02 12.26h-1.58c-1.25 0-2.27-.39-3.05-1.17-.79-.78-1.12-1.7-.99-2.75l1.25-7.53c.15-.91.18-1.63.11-2.15-.07-.54-.22-.99-.44-1.34a2.52 2.52 0 0 0-1.03-.87c-.44-.21-.98-.31-1.62-.31-.79 0-1.63.25-2.54.75-.88.47-1.84 1.18-2.87 2.14zm38.31-5.38c1.89 1.74 2.77 4 2.65 6.78-.17 3.48-1.47 6.32-3.9 8.49-2.43 2.18-5.45 3.27-9.08 3.27-3.14 0-5.69-.9-7.65-2.71-1.96-1.8-2.87-4.1-2.72-6.88.15-3.34 1.47-6.11 3.97-8.31 2.52-2.2 5.6-3.3 9.23-3.3 3.11.01 5.61.89 7.5 2.66zm-5.07 12a7.04 7.04 0 0 0 2.21-4.85c.07-1.51-.38-2.76-1.36-3.73-1.01-1-2.3-1.49-3.9-1.49-1.84 0-3.46.66-4.85 1.99-1.4 1.31-2.13 2.88-2.21 4.73-.07 1.58.37 2.86 1.32 3.86.98.98 2.27 1.46 3.86 1.46a7.02 7.02 0 0 0 4.93-1.97zm21.07-14.71h4.89l-.48 2.27c-.12.64-.47 1.16-1.03 1.56-.56.39-1.23.6-1.99.62h-2.13L240.87 56c-.25 1.12-.22 1.96.07 2.52.27.35.63.57 1.07.65a4.41 4.41 0 0 0 1.36.03c.59-.04 1.11.07 1.58.33a2.06 2.06 0 0 1 .96 1.1l.7 1.9a11.81 11.81 0 0 1-1.14.4l-1.3.39-.75.2-1.36.19-1.43.06c-1.27 0-2.37-.15-3.27-.44-.88-.27-1.59-.7-2.13-1.28-.51-.56-.85-1.28-.99-2.15-.15-.87-.12-1.9.07-3.08l1.65-9.96h-4.01l.51-2.74a1.97 1.97 0 0 1 .79-1.23c.43-.32.94-.48 1.53-.48h1.91l.37-2.3a2.21 2.21 0 0 1 .9-1.46c.5-.37 1.1-.56 1.78-.56h4.04l-.63 4.35z"/><g fill="#fff"><path d="M33.33 52.69V30.87v-3.09c0-2.41-3.75-2.42-3.75 0V49.6v3.09c0 2.41 3.75 2.41 3.75 0h0z"/><path d="M25.9 35.09h17.98 2.54c2.41 0 2.42-3.75 0-3.75H28.44 25.9c-2.41 0-2.41 3.75 0 3.75h0zm5.56 19.47h21.82 3.09c2.41 0 2.42-3.75 0-3.75H34.55h-3.09c-2.41 0-2.42 3.75 0 3.75h0z"/><path d="M52.81 58.24V40.26v-2.54c0-2.41-3.75-2.42-3.75 0V55.7v2.54c0 2.41 3.75 2.42 3.75 0h0z"/></g><path d="M107.7 40.04L90.71 59.02h16.08l-.49 1.86a4 4 0 0 1-3.87 2.99H82.22c-.83 0-1.43-.31-1.78-.92-.36-.61-.3-1.22.16-1.82l17.83-19.54h-14l.66-2.79c.12-.57.43-1.02.92-1.36s1.05-.51 1.69-.51h18.2c.93 0 1.6.35 2.02 1.04.41.7.34 1.38-.22 2.07z"/><g opacity=".15"><use xlink:href="#B" fill="#820bb4"/></g><defs ><path id="B" d="M59.29 41.8c-1.39 3.96-6.43 5.36-10.45 4.07-6.26-1.98-14.02-8.63-22.49-2.52-7.17 5.17-4.18 14.19.93 17.2 3.84 2.24 9.19 2.95 12.31.29 2.51-2.13 3.87-7.69-.35-9.6-1.44-.65-4.27-.8-5.83 1.02-2.03 2.38-1.26 5.69 1.56 6.74 0 0-5.04-.24-5.71-5.46-1.14-8.87 10.21-10.33 15.59-7 9.68 5.98 6.25 19.53-8.15 21.99-2.39.41-5.28.42-8.26-.1-5.05-2.55-9.23-6.56-12-11.47 1.75-.3 2.86-1.97 2.37-4.05-2.67-11.27 1.81-13.18 4.55-15.29 2.75-2.11 1.67-6.06-3.73-5.19-2.66.43-4.62 2.05-6.05 3.99a26.96 26.96 0 0 1 1.31-4.11c.81-2.01 1.85-3.91 3.09-5.66 1.91-1.18 4.27-2.02 7.19-2.31 16.67-1.67 19.06 12.99 26.35 15.21 10.13 3.09 5.17-10.61 5.17-10.61s4.67 6.96 2.6 12.86z"/></defs></svg>